<?xml version="1.0"?>
<svg xmlns="http://www.w3.org/2000/svg" xmlns:xlink="http://www.w3.org/1999/xlink" viewBox="0 0 512 512" width="512" height="512"><defs><linearGradient id="linear-gradient" x1="71.727" y1="539.041" x2="437.613" y2="173.155" gradientUnits="userSpaceOnUse"><stop offset="0" stop-color="#41dfd0"/><stop offset="1" stop-color="#ee83ef"/></linearGradient></defs><g id="gradient"><path d="M248,408a8,8,0,1,1,8,8A8,8,0,0,1,248,408Zm32-240a8,8,0,0,0,0,16h24a8,8,0,0,0,0-16Zm10,21.859a10,10,0,1,0,10,10A10,10,0,0,0,290,189.859ZM232,168H208a8,8,0,0,0,0,16h24a8,8,0,0,0,0-16Zm-10,21.859a10,10,0,1,0,10,10A10,10,0,0,0,222,189.859ZM25.97,493.257a8,8,0,0,1-1.9-6.347l3.688-26.8a67.97,67.97,0,0,1,36.955-51.551l39.352-19.676a7.992,7.992,0,0,1,4.353-6.177l32-16a8,8,0,0,1,7.784.35c.07.043.13.1.2.141l30.59-13.4c.187-.152.365-.313.568-.449l24-16A7.992,7.992,0,0,1,208,336v-4.382a87.508,87.508,0,0,1-40-73.781V237.859h-3.056a28.784,28.784,0,0,1-25.888-16A29.092,29.092,0,0,1,136,208.915V194.8a28.836,28.836,0,0,1,8-19.947V132.844a61.769,61.769,0,0,1,25.76-50.253l5.62-11.238a61.709,61.709,0,0,1,33.629-30.275l9.058-3.4A101.418,101.418,0,0,1,332.874,69.286l15.509,19.385a45.978,45.978,0,0,0,3.387,3.785A55.058,55.058,0,0,1,368,131.643v43.214a28.836,28.836,0,0,1,8,19.947v14.111a29.092,29.092,0,0,1-3.056,12.944,28.784,28.784,0,0,1-25.888,16H344v19.978a87.508,87.508,0,0,1-40,73.781V336a7.992,7.992,0,0,1,4.438,1.344l23.534,15.689,30.769,14.815a7.877,7.877,0,0,1,8.837-1.144l32,16a7.992,7.992,0,0,1,4.406,6.929L447.176,408.5l.107.053a67.966,67.966,0,0,1,36.954,51.551l3.689,26.8A8,8,0,0,1,480,496H32A8,8,0,0,1,25.97,493.257ZM408,447.208,414.559,480H424V453.859a8,8,0,1,1,16,0V480h30.824l-2.437-17.711a51.976,51.976,0,0,0-28.208-39.4L408,407.4ZM376,440h16V394.8l-16-8Zm-56.308-21.8a8,8,0,0,1-12.342,4.312L288,408.689V440h72V384.287l-26.916-12.96ZM304,353.615l-33.918,22.612L307.423,402.9l11.28-39.482Zm-16-11.756V339.8a87.4,87.4,0,0,1-64,0v2.061a7.978,7.978,0,0,1-.538,2.835L256,366.385l32.538-21.691A7.978,7.978,0,0,1,288,341.859Zm-32,43.972L240,397.26V440h32V397.26Zm72-231.615L307.471,120H204.529L184,154.216s.083,61.843.235,64.957L224,239.056l16-8V216a8,8,0,0,1,16,0v8.01a7.991,7.991,0,0,1,2.971.562L295.287,239.1l32.453-19.472C327.908,216.36,328,154.216,328,154.216Zm19.056,27.643H344v27.978c0,3.933-.128,7.894-.355,11.844.018.06.044.118.061.178h3.35a12.874,12.874,0,0,0,11.578-7.155A13.018,13.018,0,0,0,360,208.915V194.8A12.959,12.959,0,0,0,347.056,181.859Zm-178.708,39.85c-.227-3.954-.348-7.934-.348-11.872V181.859h-3.056A12.959,12.959,0,0,0,152,194.8v14.111a13.018,13.018,0,0,0,1.366,5.789,12.874,12.874,0,0,0,11.578,7.155H168.3C168.313,221.808,168.333,221.759,168.348,221.709Zm.792-73.825,24-40A8,8,0,0,1,200,104h16V80a8,8,0,0,1,16,0v24h16V72a8,8,0,0,1,16,0v32h16V80a8,8,0,0,1,16,0v24h16a8,8,0,0,1,6.86,3.884l24,40A8.009,8.009,0,0,1,344,152v13.859h3.056a28.987,28.987,0,0,1,4.944.432V131.643a39.164,39.164,0,0,0-11.546-27.875,62.622,62.622,0,0,1-4.565-5.1L320.38,79.281a85.417,85.417,0,0,0-96.694-26.619l-9.059,3.4A45.756,45.756,0,0,0,189.69,78.508l-6.535,13.07a7.994,7.994,0,0,1-2.717,3.078A45.807,45.807,0,0,0,160,132.844v33.447a28.987,28.987,0,0,1,4.944-.432H168V152A8.009,8.009,0,0,1,169.14,147.884ZM216,317.721V304a8,8,0,0,1,16,0v21.709a72.056,72.056,0,0,0,16,3.684V312a8,8,0,0,1,16,0v17.393a72.031,72.031,0,0,0,16-3.684V304a8,8,0,0,1,16,0v13.721a71.6,71.6,0,0,0,32-59.884V238.129L300.116,254.86a8.007,8.007,0,0,1-7.087.568l-36.665-14.666-28.786,14.393a8,8,0,0,1-7.156,0L184,236.944v20.893A71.6,71.6,0,0,0,216,317.721Zm-22.7,45.7,11.28,39.482,37.341-26.672L208,353.615ZM152,440h72V408.689L204.65,422.51a8,8,0,0,1-12.342-4.312l-13.4-46.9L152,383.089Zm-32,0h16V386.8l-16,8Zm-6.241,40H398.241l-4.8-24H118.559Zm-72.583,0H72V453.859a8,8,0,1,1,16,0V480h9.441L104,447.208V406.8L71.873,422.867A51.981,51.981,0,0,0,43.612,462.29ZM240,280h32a8,8,0,0,0,0-16H240a8,8,0,0,0,0,16Z" style="fill:url(#linear-gradient)"/></g></svg>
