<?xml version="1.0"?>
<svg xmlns="http://www.w3.org/2000/svg" xmlns:xlink="http://www.w3.org/1999/xlink" viewBox="0 0 512 512" width="512" height="512"><defs><linearGradient id="linear-gradient" x1="67.357" y1="534.671" x2="444.643" y2="157.385" gradientUnits="userSpaceOnUse"><stop offset="0" stop-color="#41dfd0"/><stop offset="1" stop-color="#ee83ef"/></linearGradient></defs><g id="gradient"><path d="M487.926,486.909l-3.689-26.8a67.968,67.968,0,0,0-36.954-51.551l-69.732-34.866a97.284,97.284,0,0,0-41.887-32.042L328,338.584V288.52a7.991,7.991,0,0,0,1.255-2.117A205.472,205.472,0,0,0,341.789,240h5.267a28.785,28.785,0,0,0,25.888-16A29.1,29.1,0,0,0,376,211.056V196.944a28.831,28.831,0,0,0-8.06-20.008c.037-.308.06-50.415.06-50.415A110.523,110.523,0,0,0,257.479,16h-2.958A110.523,110.523,0,0,0,144,126.521s.023,50.107.059,50.415A28.834,28.834,0,0,0,136,196.944v14.112A29.1,29.1,0,0,0,139.056,224a28.785,28.785,0,0,0,25.888,16h5.268a205.525,205.525,0,0,0,12.534,46.406c.395.987.819,1.967,1.254,2.94v49.238l-7.665,3.065a97.287,97.287,0,0,0-41.885,32.04L64.717,408.557a67.971,67.971,0,0,0-36.955,51.551l-3.688,26.8A8,8,0,0,0,32,496H480a8,8,0,0,0,7.926-9.091ZM257.093,104a68.5,68.5,0,0,1,39.023,12.218l-10.373,2.964a98.957,98.957,0,0,1-58.727-1.277l-7.714-2.571A68.181,68.181,0,0,1,257.093,104Zm56,5.243a85.431,85.431,0,0,0-16.256-11.268A7.99,7.99,0,0,0,297.093,96V40.724a94.5,94.5,0,0,1,16,9.37Zm-32-17.735A84.021,84.021,0,0,0,264.118,88.3l.849-55.986a94.417,94.417,0,0,1,16.126,2.7Zm-32.98-3.025A84.117,84.117,0,0,0,232,91.785V34.743a94.4,94.4,0,0,1,16.968-2.56Zm-31.736,9.943a85.606,85.606,0,0,0-9.864,6.327c-2.276,1.693-4.44,3.5-6.513,5.38v-60.8a94.471,94.471,0,0,1,16-9.1V96A7.976,7.976,0,0,0,216.377,98.426Zm-25.12,54.557a68.3,68.3,0,0,1,14.049-25.457c.056.02.108.045.164.064l16.485,5.5a114.927,114.927,0,0,0,68.185,1.481l19.824-5.664a68.349,68.349,0,0,1,14.528,30.353L328,176.792v33.046a189.8,189.8,0,0,1-4.079,39.2,7.979,7.979,0,0,0-11.275,3.815l-20.128,46.967a6.915,6.915,0,0,1-8.363,3.9,7.265,7.265,0,0,1-3.047-1.918l-.1-.1a35.363,35.363,0,0,0-50.01,0,7.536,7.536,0,0,1-3.658,2.148,6.888,6.888,0,0,1-7.856-4.023l-20.128-46.967a7.979,7.979,0,0,0-11.275-3.815,189.8,189.8,0,0,1-4.079-39.2V177.174ZM288,368a8,8,0,0,0-8,8v27.034a54.821,54.821,0,0,1-16,4.89V376a8,8,0,0,0-16,0v31.924a54.793,54.793,0,0,1-16-4.891V376a8,8,0,0,0-16,0v15.525a56.446,56.446,0,0,1-16-39.546v-57l4.775,11.143a23,23,0,0,0,25.9,13.368,23.45,23.45,0,0,0,11.637-6.481,19.361,19.361,0,0,1,27.382,0l.105.1a22.886,22.886,0,0,0,37.429-6.991L312,294.976v57a56.446,56.446,0,0,1-16,39.546V376A8,8,0,0,0,288,368Zm-63.781,49.054a71.4,71.4,0,0,0,63.563,0A72.908,72.908,0,0,0,312,397.585V480H200V397.585A72.9,72.9,0,0,0,224.219,417.054ZM360,211.056a13.017,13.017,0,0,1-1.366,5.788A12.875,12.875,0,0,1,347.056,224h-3.543q.48-7.049.487-14.162V184h3.056A12.959,12.959,0,0,1,360,196.944Zm-8-84.535v41.91a28.987,28.987,0,0,0-4.944-.431h-4.5l-2.377-11.883a84.129,84.129,0,0,0-11.1-27.988c0-.044.007-.086.007-.129V64.839A94.514,94.514,0,0,1,352,126.521ZM184,63.6V128a8,8,0,0,0,.155,1.559,84.985,84.985,0,0,0-8.222,18.827L170.048,168h-5.1a28.987,28.987,0,0,0-4.944.431v-41.91A94.5,94.5,0,0,1,184,63.6ZM164.944,224a12.875,12.875,0,0,1-11.578-7.156A13.017,13.017,0,0,1,152,211.056V196.944A12.959,12.959,0,0,1,164.944,184H168v25.837q0,7.113.487,14.163ZM43.612,462.29a51.981,51.981,0,0,1,28.261-39.423l45.674-22.837-12.331,19.73a8,8,0,0,0,0,8.48L137.566,480H88V453.859a8,8,0,1,0-16,0V480H41.176ZM156.434,480l-35-56L143.2,389.181a81.477,81.477,0,0,1,39.081-32.676l1.723-.689V480ZM328,480V355.816l1.722.689A81.475,81.475,0,0,1,368.8,389.181L390.566,424l-35,56Zm112,0V453.859a8,8,0,1,0-16,0V480H374.435l32.349-51.76a8,8,0,0,0,0-8.48l-12.331-19.73,45.674,22.837a51.977,51.977,0,0,1,28.26,39.423L470.824,480ZM240,216a8,8,0,0,1,16,0v11.122A4.883,4.883,0,0,0,260.878,232a8.053,8.053,0,0,1,1.579.157,8,8,0,0,1,9.133,5.315L272,238.7A25.267,25.267,0,0,0,296,256a8,8,0,0,1,0,16,41.233,41.233,0,0,1-37.566-24.156,20.661,20.661,0,0,1-4.411-1.024A41.239,41.239,0,0,1,216,272a8,8,0,0,1,0-16,25.267,25.267,0,0,0,24-17.3l.41-1.229a7.97,7.97,0,0,1,1.211-2.292A20.761,20.761,0,0,1,240,227.122Zm32.41-42.53a8,8,0,0,1,10.12-5.06l24,8a8,8,0,1,1-5.06,15.18l-24-8A8,8,0,0,1,272.41,173.47ZM290,192a10,10,0,1,1-10,10A10,10,0,0,1,290,192Zm-89.59-5.47a8,8,0,0,1,5.06-10.12l24-8a8,8,0,0,1,5.06,15.18l-24,8a8,8,0,0,1-10.12-5.06ZM222,212a10,10,0,1,1,10-10A10,10,0,0,1,222,212Zm50,60a8,8,0,0,1-8,8H248a8,8,0,0,1,0-16h16A8,8,0,0,1,272,272Z" style="fill:url(#linear-gradient)"/></g></svg>
