<svg xmlns="http://www.w3.org/2000/svg" viewBox="0 0 333 333" width="35" height="35">
	<style>
		tspan { white-space:pre }
		.shp0 { fill: #000000 } 
	</style>
	<g id="Layer">
		<g id="Layer">
			<path id="Layer" fill-rule="evenodd" class="shp0" d="M230.21 235.05C229.64 237.76 228.92 242.6 228.41 245.94C226.22 260.62 225.56 265.05 220.75 267.54C210.11 273.06 184.45 273.88 170.11 273.88C158.95 273.88 121.49 273.27 107.6 265.39C103.05 262.81 102.44 258.41 100.39 243.8C99.91 240.35 99.22 235.46 98.67 232.76C66.54 209.81 47.36 157.03 47.36 118.8C47.36 53.29 100.66 0 166.16 0C231.67 0 284.96 53.29 284.96 118.8C284.96 158.36 264.51 212.37 230.21 235.05ZM219.43 222.71C249.9 204.17 268.76 154.34 268.76 118.8C268.76 62.22 222.74 16.2 166.16 16.2C109.59 16.2 63.56 62.22 63.56 118.8C63.56 153.19 81.25 201.95 109.84 220.77C113.9 223.43 114.49 227.63 116.44 241.54C116.9 244.81 117.55 249.48 118.11 252.38C125.11 254.82 139.8 256.74 156.78 257.41L156.8 255.9C156.78 253.3 156.78 250.68 156.81 248.07C156.69 221.74 154.7 191.66 132.45 168.42C129.77 165.63 129.06 161.88 130.54 158.4C132.11 154.72 135.69 152.25 139.44 152.25C141.85 152.25 144.08 153.25 145.89 155.14C154.78 164.41 161.47 174.91 166.24 187.03C170.98 174.91 177.69 164.43 186.57 155.14C188.39 153.25 190.62 152.25 193.03 152.25C196.78 152.25 200.35 154.72 201.92 158.4C203.4 161.88 202.7 165.62 200.02 168.42C177.78 191.65 175.77 221.73 175.66 248.11C175.69 250.67 175.69 253.3 175.68 255.93L175.69 257.62C193.59 257.32 205.17 255.72 210.68 254.13C211.24 251.29 211.91 246.84 212.37 243.73C214.48 229.55 215.11 225.32 219.43 222.71Z" />
			<path id="Layer" fill-rule="evenodd" class="shp0" d="M156.26 332.33L156.26 331.83C104.94 327.4 102.29 289.96 102.27 289.56L101.57 276.54L113.55 281.68C125.81 286.93 155.75 288.41 166.26 288.53C176.07 288.4 204.73 286.93 216.97 281.68L228.96 276.54L228.25 289.56C228.23 289.96 225.58 327.4 174.26 331.83L174.26 332.24L166.16 332.33L156.26 332.33ZM164.5 316.04L165.27 316.05L166.02 316.04C189.04 315.63 200.58 308.24 206.35 301.23C189.08 304.33 169.2 304.68 166.27 304.72C163.03 304.68 141.96 304.33 124.12 301.17C129.86 308.18 141.4 315.63 164.5 316.04Z" />
		</g>
	</g>
	<g id="Layer">
	</g>
	<g id="Layer">
	</g>
	<g id="Layer">
	</g>
	<g id="Layer">
	</g>
	<g id="Layer">
	</g>
	<g id="Layer">
	</g>
	<g id="Layer">
	</g>
	<g id="Layer">
	</g>
	<g id="Layer">
	</g>
	<g id="Layer">
	</g>
	<g id="Layer">
	</g>
	<g id="Layer">
	</g>
	<g id="Layer">
	</g>
	<g id="Layer">
	</g>
	<g id="Layer">
	</g>
</svg>